# xmcd
#
# Track frame offsets:
#	150
#	15558
#	27047
#	40086
#	53009
#	64825
#	74857
#	86027
#	99899
#	116837
#	127516
#	137698
#	148324
#	159985
#	173069
#	183928
#	194458
#	206650
#	219806
#	230580
#	244896
#	255327
#	269044
#	284127
#	303174
#	311933
#	325708
#	335716
#	348291
#	363554
#	377182
#	387926
#
# Disc length: 5377 seconds
#
# Revision: 0
# Processed by: cddbd v1.5.2PL0 Copyright (c) Steve Scherf et al.
# Submitted via: audiograbber 1.83.01
#
DISCID=e714ff20
DTITLE=Various Artist - Old and New Country and Western Stars Vol. II
DYEAR=1900
DGENRE=Country
TTITLE0=Jim Reeves  - Blue Side Of Lonesome 
TTITLE1=Chet Atkins  - San Antonio Rose 
TTITLE2=Eddy Arnold  - When My Blue Moon Turns To Gold 
TTITLE3=Hank Snow  - Memories Are Made Of This 
TTITLE4=Skeeter Davis  - What Does It Take 
TTITLE5=Jim Reeves  - When Two Worlds Collide 
TTITLE6=Chet Atkins  - Make The World Go Away 
TTITLE7=Eddy Arnold  - Wagon Wheels 
TTITLE8=Hank Snow  - Black Diamond 
TTITLE9=Skeeter Davis  - I Can`t Help It 
TTITLE10=Jim Reeves  - A Fool Such As I 
TTITLE11=Dolly Parton  - My Blue Tears 
TTITLE12=Jerry Reed  - Ko Ko Joe 
TTITLE13=Waylon Jennings  - Cedartown Georgia 
TTITLE14=Lester Flatt and Mac Wiseman  - Special 
TTITLE15=Jim Reeves  - Am I Losing You 
TTITLE16=George Hamilton IV  - West Texas Highway 
TTITLE17=Skeeter Davis  - Love Takes A Lot Of My Time 
TTITLE18=Porter Wagoner  - Be A Little Quieter 
TTITLE19=Hank Snow  - (Seashores Of) Old Mexico 
TTITLE20=Glen Campbell  - Walk Right In 
TTITLE21=Bob Dickey  - Yesterday I Sent You A Dozen Roses 
TTITLE22=Kelvin Henderson  - Big Wheel 
TTITLE23=Country Cats  - Tennessee Queen 
TTITLE24=Jerry Abbott  - When It Comes To Cowgirls 
TTITLE25=Frank Sinatra Jr.  - Don`t Blame Her 
TTITLE26=Johnny Cash  - Born To Lose 
TTITLE27=Don Drumm  - Bedroom Eyes 
TTITLE28=Mary Lou Turner  - You Can`t Remember And I Can`t 
TTITLE29=Nick Noble  - My Country Kind Of Girl 
TTITLE30=Ray Hillburn  - Stolen Wine 
TTITLE31=Don Drumm  - You`d Be Beautiful 
EXTD=
EXTT0=
EXTT1=
EXTT2=
EXTT3=
EXTT4=
EXTT5=
EXTT6=
EXTT7=
EXTT8=
EXTT9=
EXTT10=
EXTT11=
EXTT12=
EXTT13=
EXTT14=
EXTT15=
EXTT16=
EXTT17=
EXTT18=
EXTT19=
EXTT20=
EXTT21=
EXTT22=
EXTT23=
EXTT24=
EXTT25=
EXTT26=
EXTT27=
EXTT28=
EXTT29=
EXTT30=
EXTT31=
PLAYORDER=
